<svg xmlns="http://www.w3.org/2000/svg" xmlns:xlink="http://www.w3.org/1999/xlink" width="1080" zoomAndPan="magnify" viewBox="0 0 810 809.999993" height="1080" preserveAspectRatio="xMidYMid meet" version="1.0"><defs><g/><clipPath id="e234a7d11b"><path d="M 104.113281 104.113281 L 705.613281 104.113281 L 705.613281 705.613281 L 104.113281 705.613281 Z M 104.113281 104.113281 " clip-rule="nonzero"/></clipPath></defs><g clip-path="url(#e234a7d11b)"><path fill="#374476" d="M 405 104.113281 C 239.03125 104.113281 104.113281 239.152344 104.113281 405 C 104.113281 570.96875 239.03125 705.882812 405 705.882812 C 570.847656 705.882812 705.882812 570.96875 705.882812 405 C 705.882812 239.152344 570.847656 104.113281 405 104.113281 Z M 405 682.414062 C 252.03125 682.414062 127.582031 557.96875 127.582031 405 C 127.582031 252.03125 252.03125 127.582031 405 127.582031 C 557.96875 127.582031 682.414062 252.03125 682.414062 405 C 682.414062 557.96875 557.96875 682.414062 405 682.414062 Z M 405 682.414062 " fill-opacity="1" fill-rule="nonzero"/></g><path fill="#374476" d="M 405 143.230469 C 260.695312 143.230469 143.230469 260.695312 143.230469 405 C 143.230469 549.304688 260.695312 666.769531 405 666.769531 C 549.304688 666.769531 666.769531 549.304688 666.769531 405 C 666.769531 260.695312 549.304688 143.230469 405 143.230469 Z M 405 143.230469 " fill-opacity="1" fill-rule="nonzero"/><g fill="#fffcf5" fill-opacity="1"><g transform="translate(261.021729, 453.635988)"><g><path d="M -10.125 -3.984375 C -10.125 -2.546875 -9.628906 -1.21875 -8.640625 0 L 73.71875 0 C 75.382812 -1.65625 76.21875 -4.144531 76.21875 -7.46875 C 76.21875 -8.132812 76.132812 -8.960938 75.96875 -9.953125 C 75.800781 -10.953125 75.660156 -11.726562 75.546875 -12.28125 C 68.347656 -12.507812 62.535156 -13.535156 58.109375 -15.359375 C 53.679688 -17.179688 51.46875 -21.082031 51.46875 -27.0625 C 51.46875 -39.125 53.429688 -54.316406 57.359375 -72.640625 C 61.296875 -90.960938 66.75 -113.460938 73.71875 -140.140625 C 77.59375 -154.972656 80.414062 -166.207031 82.1875 -173.84375 C 83.625 -180.039062 85.644531 -184.851562 88.25 -188.28125 C 90.851562 -191.71875 94.226562 -194.125 98.375 -195.5 C 102.53125 -196.882812 107.816406 -197.578125 114.234375 -197.578125 C 116.554688 -200.679688 117.71875 -203.671875 117.71875 -206.546875 C 117.71875 -207.097656 117.550781 -207.734375 117.21875 -208.453125 C 116.882812 -209.179688 116.664062 -209.65625 116.5625 -209.875 L 34.203125 -209.875 C 32.546875 -208.207031 31.71875 -205.71875 31.71875 -202.40625 C 31.71875 -201.738281 31.800781 -200.929688 31.96875 -199.984375 C 32.132812 -199.046875 32.269531 -198.242188 32.375 -197.578125 C 39.570312 -197.359375 45.382812 -196.363281 49.8125 -194.59375 C 54.238281 -192.820312 56.453125 -189.003906 56.453125 -183.140625 C 56.453125 -170.960938 54.488281 -155.820312 50.5625 -137.71875 C 46.632812 -119.625 41.070312 -96.628906 33.875 -68.734375 C 28.894531 -49.585938 26.125 -38.6875 25.5625 -36.03125 C 23.46875 -27.0625 19.984375 -20.914062 15.109375 -17.59375 C 10.234375 -14.28125 3.039062 -12.625 -6.46875 -12.625 C -7.46875 -11.507812 -8.328125 -10.148438 -9.046875 -8.546875 C -9.765625 -6.941406 -10.125 -5.421875 -10.125 -3.984375 Z M -10.125 -3.984375 "/></g></g></g><g fill="#fffcf5" fill-opacity="1"><g transform="translate(355.23605, 549.801574)"><g><path d="M 71.234375 0 C 73.003906 -1.769531 73.890625 -4.257812 73.890625 -7.46875 C 73.890625 -8.132812 73.804688 -8.960938 73.640625 -9.953125 C 73.472656 -10.953125 73.332031 -11.726562 73.21875 -12.28125 C 67.238281 -12.613281 61.34375 -13.691406 55.53125 -15.515625 C 49.726562 -17.347656 46.828125 -20.367188 46.828125 -24.578125 C 46.828125 -27.671875 49.757812 -42.582031 55.625 -69.3125 C 61.488281 -96.050781 69.234375 -131.054688 78.859375 -174.328125 L 83.34375 -194.09375 L 158.234375 3.8125 C 158.890625 5.695312 162.59375 6.640625 169.34375 6.640625 C 174.21875 6.640625 178.316406 6.085938 181.640625 4.984375 L 221.65625 -173.671875 C 223.53125 -182.191406 226.765625 -188.304688 231.359375 -192.015625 C 235.953125 -195.722656 242.625 -197.578125 251.375 -197.578125 C 252.914062 -199.128906 253.6875 -201.5625 253.6875 -204.875 L 253.203125 -209.859375 L 173.34375 -209.859375 L 172.84375 -204.875 C 172.84375 -201.5625 173.613281 -199.128906 175.15625 -197.578125 C 181.351562 -197.578125 187.109375 -196.550781 192.421875 -194.5 C 197.742188 -192.457031 200.40625 -188.890625 200.40625 -183.796875 C 200.40625 -179.253906 191.878906 -139.460938 174.828125 -64.421875 C 171.835938 -51.804688 169.734375 -42.507812 168.515625 -36.53125 L 104.9375 -209.859375 L 32.875 -209.859375 C 31.320312 -206.429688 30.546875 -203.222656 30.546875 -200.234375 C 30.546875 -199.347656 31.238281 -198.679688 32.625 -198.234375 C 34.007812 -197.796875 36.304688 -197.300781 39.515625 -196.75 C 45.492188 -195.75 50.195312 -194.445312 53.625 -192.84375 C 57.0625 -191.238281 58.78125 -188.390625 58.78125 -184.296875 C 58.78125 -181.421875 56.398438 -169.4375 51.640625 -148.34375 C 46.878906 -127.257812 40.125 -97.847656 31.375 -60.109375 L 25.734375 -35.53125 C 23.742188 -26.789062 20.203125 -20.703125 15.109375 -17.265625 C 10.015625 -13.835938 2.820312 -12.125 -6.46875 -12.125 L -9.96875 -2.828125 L -8.796875 0.328125 L -8.640625 0 Z M 71.234375 0 "/></g></g></g></svg>